PathFileType	4	(X/Y/Z)	Walk7.trc
DataRate	CameraRate	NumFrames	NumMarkers	Units	OrigDataRate	OrigDataStartFrame	OrigNumFrames
200.000000	200.000000	5	59	mm	200.000000	667	787
Frame#	Times		LCAR		LUA1		LACR1		RTH3		RCAR		RUA1		RACR1		LTB2		RTH1		RFHD		RWRR		RTH2		T10		RPSI		RElbowM		STRN		RBack		LMT5		LLFC		C7		RASI		LTB1		RTH4		LMT1		LPSI		LTB3		LFHD		LTB4		LToe		LLMAL		LTH3		LASI		LElbowM		LTH4		CLAV		RFA1		RElbow		RBHD		LTH1		RWRU		RLFC		LCAL		LFA1		RTB2		LWRR		LTH2		LBHD		LElbow		RTB1		RMT5		RTB3		LWRU		RTB4		RMT1		RToe		RMMAL		RLMAL		RCAL		LMMAL
			X1	Y1	Z1	X2	Y2	Z2	X3	Y3	Z3	X4	Y4	Z4	X5	Y5	Z5	X6	Y6	Z6	X7	Y7	Z7	X8	Y8	Z8	X9	Y9	Z9	X10	Y10	Z10	X11	Y11	Z11	X12	Y12	Z12	X13	Y13	Z13	X14	Y14	Z14	X15	Y15	Z15	X16	Y16	Z16	X17	Y17	Z17	X18	Y18	Z18	X19	Y19	Z19	X20	Y20	Z20	X21	Y21	Z21	X22	Y22	Z22	X23	Y23	Z23	X24	Y24	Z24	X25	Y25	Z25	X26	Y26	Z26	X27	Y27	Z27	X28	Y28	Z28	X29	Y29	Z29	X30	Y30	Z30	X31	Y31	Z31	X32	Y32	Z32	X33	Y33	Z33	X34	Y34	Z34	X35	Y35	Z35	X36	Y36	Z36	X37	Y37	Z37	X38	Y38	Z38	X39	Y39	Z39	X40	Y40	Z40	X41	Y41	Z41	X42	Y42	Z42	X43	Y43	Z43	X44	Y44	Z44	X45	Y45	Z45	X46	Y46	Z46	X47	Y47	Z47	X48	Y48	Z48	X49	Y49	Z49	X50	Y50	Z50	X51	Y51	Z51	X52	Y52	Z52	X53	Y53	Z53	X54	Y54	Z54	X55	Y55	Z55	X56	Y56	Z56	X57	Y57	Z57	X58	Y58	Z58	X59	Y59	Z59

667	3.335	445.81	767.15	-311.01	520.62	1183.5	-242.01	567.62	1362	-151.73	517.57	572.44	173.7	746.05	830.53	337.57	587.75	1185.1	262.34	589.99	1359.2	157.34	824.41	276.59	-118.24	573.92	726.27	227.95	722.94	1558.3	41.484	722.04	874.93	284.42	597.88	639.03	179.11	428.37	1136.8	16.732	435.95	953.38	56.937	537	1026.2	212.07	700.39	1215.8	-0.59896	461.51	1307.3	125.91	954.76	51.785	-108.52	740.12	482.27	-124.85	507.24	1402.6	16.113	682.29	957.75	163.85	837.25	365.5	-60.764	543.47	648.74	198.75	980.92	80.966	-43.063	436.06	944.72	-32.183	866.9	196.05	-69.828	708.69	1563.4	-51.591	851.59	280.06	-63.644	1037.2	99.46	-78.387	858.79	73.211	-92.811	691.58	587.96	-154.22	684.93	943.02	-130.06	435.26	1045.1	-183.61	653.76	663.16	-172.31	643	1319.7	-1.5418	603.28	928.52	321.69	545.28	1065.9	302.84	567.69	1537.6	83.017	616.63	734.43	-201.14	670.48	837.49	319.1	485.37	490.18	148.81	807.44	30.317	-50.657	418.88	941.51	-284.73	431.91	254.6	117.84	462.62	811.29	-266.38	704.91	692.54	-169.33	548.72	1536.3	-58.961	456.83	1068.7	-260.81	484.45	331.25	69.147	438.13	27.326	100.19	429.04	167.86	58.535	401.74	826.62	-303.86	457.45	248.33	60.926	475.71	32.948	25.947	541.42	26.99	63.261	380.96	73.218	-6.0598	361.1	67.698	75.289	295.54	42.284	34.512	876.82	86.87	-14.369
668	3.34	448.1	766.81	-311.76	525.55	1182.8	-242.34	573.93	1360.9	-152.14	522.17	572.03	173.6	753.12	830.18	337.19	594.03	1184.1	261.86	596	1358.2	156.91	835.14	277.24	-118.03	579.42	725.52	227.78	728.67	1557.6	41.108	728.89	874.51	284.1	602.77	638.19	178.96	435.2	1135.8	16.361	442.25	952.15	56.472	543.1	1025.3	211.89	706.42	1214.9	-0.90259	467.48	1306.4	125.51	970.57	53.404	-106.14	746.21	481.18	-125.38	513.27	1401.6	15.685	688.14	956.76	163.95	845.38	366.24	-60.338	548.36	648.22	198.58	994.49	84.41	-40.852	442.51	943.46	-32.368	878.38	197.36	-69.214	714.53	1562.6	-52.052	861.31	281.1	-63.104	1050.7	103.4	-76.16	873.29	73.937	-92.133	697.43	586.65	-156.04	691.38	942.02	-130.24	440.96	1044.3	-183.73	659.91	662.05	-173.46	648.91	1318.6	-1.8937	610.25	928.04	321.5	551.83	1065.1	302.51	573.27	1536.4	82.464	623.01	733.8	-201.6	677.42	836.81	318.68	489.53	490.05	148.67	822.37	30.303	-50.314	422.62	941.48	-284.87	433.91	254.67	117.84	466.89	810.69	-267.46	711.12	691.35	-169.6	554.71	1535.4	-59.589	461.45	1068	-261.04	487.21	330.8	69.059	438.27	27.533	99.961	430.48	167.92	58.617	404.55	826.57	-303.87	459.48	248.17	60.971	475.71	32.943	26	541.59	26.693	63.69	381.63	73.91	-5.9894	361.3	68.473	75.217	295.59	43.414	34.5	889.98	88.501	-13.507
669	3.345	450.64	766.27	-312.59	530.59	1181.9	-242.78	580.09	1360	-152.67	526.99	571.67	173.56	760.13	829.65	336.8	600.12	1183.3	261.34	601.99	1357.4	156.42	845.39	277.85	-117.77	584.93	724.9	227.56	734.32	1557	40.683	735.73	874.01	283.71	607.63	637.41	178.77	441.26	1134.7	16.031	448.54	950.92	56.108	549.19	1024.3	211.32	712.54	1213.7	-1.1569	473.35	1305.3	124.81	985.26	55.006	-103.76	752.6	480.45	-125.57	519.32	1400.5	15.02	694.08	955.85	164.01	853.31	366.82	-59.794	553.47	647.78	198.54	1007	87.424	-39.041	448.59	942.24	-32.594	889.24	198.6	-68.541	720.4	1561.9	-52.427	870.66	282.06	-62.494	1063.5	107.43	-73.906	886.52	74.901	-91.864	703.2	585.2	-157.47	697.9	941.04	-130.34	445.75	1043.8	-184.07	666.15	661.13	-174.83	655.06	1317.6	-2.4608	616.87	927.16	321.22	558.45	1064.3	302.32	578.97	1535.4	81.935	629.47	733.17	-202.13	684.08	836.39	318.48	493.78	489.85	148.62	836.13	30.303	-50.368	426.65	940.86	-285.2	435.97	254.9	117.88	468.73	810.12	-268.36	717.45	690.31	-169.99	560.58	1534.3	-59.996	466.11	1067.5	-261.38	490.38	330.47	69.059	438.33	27.371	99.9	431.5	167.99	58.691	407.5	826.37	-304.07	461.61	248.05	60.929	475.65	32.897	26.073	541.72	26.422	64.047	381.88	74.367	-5.9063	361.57	69.319	75.201	295.84	44.532	34.645	902.02	89.958	-12.718
670	3.35	453.3	765.89	-313.29	535.79	1181.1	-243.39	586.33	1358.9	-153.21	531.59	571.32	173.52	766.86	829.13	336.51	606.32	1182.3	260.81	608.09	1356.5	155.93	855.04	278.42	-117.45	590.59	724.21	227.43	740.02	1556.3	40.459	742.38	873.53	283.41	613.01	636.69	178.4	446.8	1133.7	15.064	454.73	949.73	55.833	555.55	1022.9	211.12	718.71	1212.5	-1.5017	478.86	1304.1	124.08	998.47	55.858	-101.21	759.55	479.73	-125.65	525.23	1399.5	14.319	699.97	955.09	164	860.9	367.34	-59.11	558.61	647.31	198.35	1018.6	90.402	-37.522	455.02	941.11	-32.966	899.55	199.72	-67.955	726.19	1561	-52.832	879.65	282.84	-61.804	1075.8	111.01	-71.281	898.89	76.131	-91.954	709.34	583.89	-158.68	704.61	940.14	-130.34	451.15	1042.7	-183.89	672.36	660.09	-176.05	661.25	1316.7	-2.7698	623.08	926.09	320.84	564.89	1063.4	301.9	584.68	1534.5	81.219	635.88	732.5	-202.73	691.06	835.91	318.26	497.88	489.7	148.41	848.72	30.597	-50.867	430.87	940.58	-285.25	438.15	255.07	117.95	470.29	809.36	-268.96	723.73	689.27	-170.38	566.75	1533.4	-60.7	470.93	1066.6	-261.36	493.35	330.09	69.207	438.43	27.47	99.834	432.97	168.28	58.669	410.68	826.08	-304.23	463.7	248	60.971	475.67	32.967	26.071	541.77	26.109	64.303	382.02	74.882	-5.7732	362.05	70.285	75.36	295.81	45.962	34.586	913.27	91.302	-12.12
671	3.355	456.12	765.35	-313.96	541.08	1180.2	-243.85	592.51	1357.7	-153.85	536.58	570.86	173.56	773.37	828.69	336.18	612.55	1181.5	260.22	613.77	1355.6	155.53	864.56	279.06	-117.24	596.5	723.36	227.31	745.83	1555.7	40.093	748.7	872.88	283.12	618.14	635.88	178.13	452.77	1132.7	14.479	461.14	948.75	55.21	561.93	1021.9	210.88	724.63	1211.6	-1.6655	484.88	1303.1	123.45	1010.3	57.346	-99.353	766.58	479.01	-125.78	531.35	1398.5	13.924	706.24	954.32	164.08	868.39	367.73	-58.34	563.83	646.64	198.22	1029.6	92.755	-36.302	461.4	940.04	-33.505	909.44	200.69	-67.417	732.19	1560.4	-53.316	888.21	283.43	-61.141	1086.9	114.25	-68.971	910.26	77.307	-92.266	715.71	582.73	-159.68	711.21	939.17	-130.29	457.1	1041.9	-183.85	678.78	659.08	-177.21	667.4	1315.7	-3.2787	629.85	925.16	319.45	571.4	1062.5	301.25	590.42	1533.4	80.486	642.29	731.79	-203.34	697.65	835.25	318	501.75	489.38	147.76	860.72	30.732	-51.695	434.93	940.44	-285.53	440.56	255.36	118.02	473.1	808.61	-269.51	730.3	688.43	-170.88	572.6	1532.1	-61.407	476	1065.9	-261.5	496.34	329.76	69.169	438.7	27.437	99.809	434.32	168.49	58.727	414.17	825.93	-304.46	465.89	247.89	61.021	475.73	33.078	26.07	541.85	25.821	64.525	382.3	75.498	-5.612	362.61	71.153	75.646	295.99	47.21	34.851	924.18	92.366	-11.945
